<mxfile host="app.diagrams.net" agent="Mozilla/5.0 (Windows NT 10.0; Win64; x64) AppleWebKit/537.36 (KHTML, like Gecko) Chrome/133.0.0.0 Safari/537.36 Edg/133.0.0.0" version="26.0.16">
  <diagram name="第 1 页" id="8nEKdzrm3Yq92rFxKecC">
    <mxGraphModel dx="2661" dy="1022" grid="1" gridSize="10" guides="1" tooltips="1" connect="1" arrows="1" fold="1" page="1" pageScale="1" pageWidth="827" pageHeight="1169" math="0" shadow="0">
      <root>
        <mxCell id="0" />
        <mxCell id="1" parent="0" />
        <mxCell id="2E57zu9M5rJDjfoZ4f6W-1" value="开始执行远程控制数据通信线程" style="rounded=1;whiteSpace=wrap;html=1;" vertex="1" parent="1">
          <mxGeometry x="95" y="40" width="90" height="60" as="geometry" />
        </mxCell>
        <mxCell id="2E57zu9M5rJDjfoZ4f6W-2" value="执行线程内全局参数初始化函数" style="rounded=0;whiteSpace=wrap;html=1;" vertex="1" parent="1">
          <mxGeometry x="80" y="150" width="120" height="60" as="geometry" />
        </mxCell>
        <mxCell id="2E57zu9M5rJDjfoZ4f6W-3" value="执行界面初始化函数" style="rounded=0;whiteSpace=wrap;html=1;" vertex="1" parent="1">
          <mxGeometry x="80" y="260" width="120" height="60" as="geometry" />
        </mxCell>
        <mxCell id="2E57zu9M5rJDjfoZ4f6W-4" value="开始执行远程图像通信线程" style="rounded=1;whiteSpace=wrap;html=1;" vertex="1" parent="1">
          <mxGeometry x="283" y="40" width="90" height="60" as="geometry" />
        </mxCell>
        <mxCell id="2E57zu9M5rJDjfoZ4f6W-5" value="执行线程内全局参数初始化函数" style="rounded=0;whiteSpace=wrap;html=1;" vertex="1" parent="1">
          <mxGeometry x="268" y="150" width="120" height="60" as="geometry" />
        </mxCell>
        <mxCell id="2E57zu9M5rJDjfoZ4f6W-6" value="执行界面初始化函数" style="rounded=0;whiteSpace=wrap;html=1;" vertex="1" parent="1">
          <mxGeometry x="268" y="260" width="120" height="60" as="geometry" />
        </mxCell>
        <mxCell id="2E57zu9M5rJDjfoZ4f6W-7" value="开始执行远程遥控线程" style="rounded=1;whiteSpace=wrap;html=1;" vertex="1" parent="1">
          <mxGeometry x="476" y="40" width="90" height="60" as="geometry" />
        </mxCell>
        <mxCell id="2E57zu9M5rJDjfoZ4f6W-8" value="执行线程内全局参数初始化函数" style="rounded=0;whiteSpace=wrap;html=1;" vertex="1" parent="1">
          <mxGeometry x="461" y="150" width="120" height="60" as="geometry" />
        </mxCell>
        <mxCell id="2E57zu9M5rJDjfoZ4f6W-9" value="执行界面初始化函数" style="rounded=0;whiteSpace=wrap;html=1;" vertex="1" parent="1">
          <mxGeometry x="461" y="260" width="120" height="60" as="geometry" />
        </mxCell>
        <mxCell id="2E57zu9M5rJDjfoZ4f6W-10" value="开始执行控制算法线程" style="rounded=1;whiteSpace=wrap;html=1;" vertex="1" parent="1">
          <mxGeometry x="655" y="40" width="90" height="60" as="geometry" />
        </mxCell>
        <mxCell id="2E57zu9M5rJDjfoZ4f6W-11" value="执行线程内全局参数初始化函数" style="rounded=0;whiteSpace=wrap;html=1;" vertex="1" parent="1">
          <mxGeometry x="640" y="150" width="120" height="60" as="geometry" />
        </mxCell>
        <mxCell id="2E57zu9M5rJDjfoZ4f6W-12" value="执行界面初始化函数" style="rounded=0;whiteSpace=wrap;html=1;" vertex="1" parent="1">
          <mxGeometry x="640" y="260" width="120" height="60" as="geometry" />
        </mxCell>
        <mxCell id="2E57zu9M5rJDjfoZ4f6W-13" value="开始运行SRUSV控制主程序" style="rounded=1;whiteSpace=wrap;html=1;" vertex="1" parent="1">
          <mxGeometry x="-130" y="40" width="100" height="60" as="geometry" />
        </mxCell>
      </root>
    </mxGraphModel>
  </diagram>
</mxfile>
